<mxfile host="app.diagrams.net" modified="2021-05-19T01:11:51.210Z" agent="5.0 (Windows NT 10.0; Win64; x64) AppleWebKit/537.36 (KHTML, like Gecko) Chrome/90.0.4430.212 Safari/537.36" etag="A2wcqpi4KWjk6GRL-O4J" version="14.6.13" type="github" pages="4">
  <diagram id="kE3OhcBsE_RhSVcmCxd5" name="Quiz - Without Subsections">
    <mxGraphModel dx="1422" dy="794" grid="1" gridSize="10" guides="1" tooltips="1" connect="1" arrows="1" fold="1" page="1" pageScale="1" pageWidth="850" pageHeight="1100" math="0" shadow="0">
      <root>
        <mxCell id="6c9Q2NEHoMRy_ROicIrK-0" />
        <mxCell id="6c9Q2NEHoMRy_ROicIrK-1" parent="6c9Q2NEHoMRy_ROicIrK-0" />
        <mxCell id="Vsm7SqbSWCi0VBuKMkob-0" value="" style="rounded=0;whiteSpace=wrap;html=1;" parent="6c9Q2NEHoMRy_ROicIrK-1" vertex="1">
          <mxGeometry x="50" y="90" width="750" height="780" as="geometry" />
        </mxCell>
        <mxCell id="Vsm7SqbSWCi0VBuKMkob-9" value="&lt;h2&gt;&lt;font face=&quot;Verdana&quot;&gt;Websitename&lt;/font&gt;&lt;/h2&gt;" style="rounded=0;whiteSpace=wrap;html=1;fillColor=none;align=center;" parent="6c9Q2NEHoMRy_ROicIrK-1" vertex="1">
          <mxGeometry x="50" y="90" width="750" height="70" as="geometry" />
        </mxCell>
        <mxCell id="Vsm7SqbSWCi0VBuKMkob-16" value="HMB" style="whiteSpace=wrap;html=1;aspect=fixed;fillColor=none;align=left;" parent="6c9Q2NEHoMRy_ROicIrK-1" vertex="1">
          <mxGeometry x="760" y="110" width="30" height="30" as="geometry" />
        </mxCell>
        <mxCell id="Vsm7SqbSWCi0VBuKMkob-17" value="&lt;h1&gt;&lt;font face=&quot;Verdana&quot;&gt;Quizzes&lt;/font&gt;&lt;/h1&gt;" style="text;html=1;strokeColor=none;fillColor=none;align=center;verticalAlign=middle;whiteSpace=wrap;rounded=0;" parent="6c9Q2NEHoMRy_ROicIrK-1" vertex="1">
          <mxGeometry x="375" y="475" width="100" height="20" as="geometry" />
        </mxCell>
        <mxCell id="Vsm7SqbSWCi0VBuKMkob-22" value="" style="ellipse;whiteSpace=wrap;html=1;aspect=fixed;fillColor=none;align=left;" parent="6c9Q2NEHoMRy_ROicIrK-1" vertex="1">
          <mxGeometry x="190" y="386" width="80" height="80" as="geometry" />
        </mxCell>
        <mxCell id="Vsm7SqbSWCi0VBuKMkob-23" value="" style="ellipse;whiteSpace=wrap;html=1;aspect=fixed;fillColor=none;align=left;" parent="6c9Q2NEHoMRy_ROicIrK-1" vertex="1">
          <mxGeometry x="385" y="249" width="80" height="80" as="geometry" />
        </mxCell>
        <mxCell id="Vsm7SqbSWCi0VBuKMkob-24" value="" style="ellipse;whiteSpace=wrap;html=1;aspect=fixed;fillColor=none;align=left;" parent="6c9Q2NEHoMRy_ROicIrK-1" vertex="1">
          <mxGeometry x="263" y="613" width="80" height="80" as="geometry" />
        </mxCell>
        <mxCell id="Vsm7SqbSWCi0VBuKMkob-25" value="" style="ellipse;whiteSpace=wrap;html=1;aspect=fixed;fillColor=none;align=left;" parent="6c9Q2NEHoMRy_ROicIrK-1" vertex="1">
          <mxGeometry x="505" y="613" width="80" height="80" as="geometry" />
        </mxCell>
        <mxCell id="Vsm7SqbSWCi0VBuKMkob-26" value="" style="ellipse;whiteSpace=wrap;html=1;aspect=fixed;fillColor=none;align=left;" parent="6c9Q2NEHoMRy_ROicIrK-1" vertex="1">
          <mxGeometry x="577" y="386" width="80" height="80" as="geometry" />
        </mxCell>
        <mxCell id="Vsm7SqbSWCi0VBuKMkob-28" value="Name" style="text;html=1;strokeColor=none;fillColor=none;align=center;verticalAlign=middle;whiteSpace=wrap;rounded=0;" parent="6c9Q2NEHoMRy_ROicIrK-1" vertex="1">
          <mxGeometry x="405" y="345" width="40" height="20" as="geometry" />
        </mxCell>
        <mxCell id="Vsm7SqbSWCi0VBuKMkob-29" value="Name" style="text;html=1;strokeColor=none;fillColor=none;align=center;verticalAlign=middle;whiteSpace=wrap;rounded=0;" parent="6c9Q2NEHoMRy_ROicIrK-1" vertex="1">
          <mxGeometry x="597" y="475" width="40" height="20" as="geometry" />
        </mxCell>
        <mxCell id="Vsm7SqbSWCi0VBuKMkob-30" value="Name" style="text;html=1;strokeColor=none;fillColor=none;align=center;verticalAlign=middle;whiteSpace=wrap;rounded=0;" parent="6c9Q2NEHoMRy_ROicIrK-1" vertex="1">
          <mxGeometry x="210" y="475" width="40" height="20" as="geometry" />
        </mxCell>
        <mxCell id="Vsm7SqbSWCi0VBuKMkob-31" value="Name" style="text;html=1;strokeColor=none;fillColor=none;align=center;verticalAlign=middle;whiteSpace=wrap;rounded=0;" parent="6c9Q2NEHoMRy_ROicIrK-1" vertex="1">
          <mxGeometry x="525" y="701" width="40" height="20" as="geometry" />
        </mxCell>
        <mxCell id="Vsm7SqbSWCi0VBuKMkob-32" value="Name" style="text;html=1;strokeColor=none;fillColor=none;align=center;verticalAlign=middle;whiteSpace=wrap;rounded=0;" parent="6c9Q2NEHoMRy_ROicIrK-1" vertex="1">
          <mxGeometry x="283" y="710" width="40" height="20" as="geometry" />
        </mxCell>
        <mxCell id="Vsm7SqbSWCi0VBuKMkob-36" value="Icon" style="text;html=1;strokeColor=none;fillColor=none;align=center;verticalAlign=middle;whiteSpace=wrap;rounded=0;" parent="6c9Q2NEHoMRy_ROicIrK-1" vertex="1">
          <mxGeometry x="405" y="279" width="40" height="20" as="geometry" />
        </mxCell>
        <mxCell id="Vsm7SqbSWCi0VBuKMkob-37" value="Icon" style="text;html=1;strokeColor=none;fillColor=none;align=center;verticalAlign=middle;whiteSpace=wrap;rounded=0;" parent="6c9Q2NEHoMRy_ROicIrK-1" vertex="1">
          <mxGeometry x="210" y="415" width="40" height="20" as="geometry" />
        </mxCell>
        <mxCell id="Vsm7SqbSWCi0VBuKMkob-38" value="Icon" style="text;html=1;strokeColor=none;fillColor=none;align=center;verticalAlign=middle;whiteSpace=wrap;rounded=0;" parent="6c9Q2NEHoMRy_ROicIrK-1" vertex="1">
          <mxGeometry x="283" y="643" width="40" height="20" as="geometry" />
        </mxCell>
        <mxCell id="Vsm7SqbSWCi0VBuKMkob-39" value="Icon" style="text;html=1;strokeColor=none;fillColor=none;align=center;verticalAlign=middle;whiteSpace=wrap;rounded=0;" parent="6c9Q2NEHoMRy_ROicIrK-1" vertex="1">
          <mxGeometry x="525" y="643" width="40" height="20" as="geometry" />
        </mxCell>
        <mxCell id="Vsm7SqbSWCi0VBuKMkob-40" value="Icon" style="text;html=1;strokeColor=none;fillColor=none;align=center;verticalAlign=middle;whiteSpace=wrap;rounded=0;" parent="6c9Q2NEHoMRy_ROicIrK-1" vertex="1">
          <mxGeometry x="597" y="416" width="40" height="20" as="geometry" />
        </mxCell>
        <mxCell id="Vsm7SqbSWCi0VBuKMkob-79" value="&lt;h2&gt;&lt;font face=&quot;Verdana&quot;&gt;Footer&lt;/font&gt;&lt;/h2&gt;" style="rounded=0;whiteSpace=wrap;html=1;fillColor=none;align=center;" parent="6c9Q2NEHoMRy_ROicIrK-1" vertex="1">
          <mxGeometry x="50" y="800" width="750" height="70" as="geometry" />
        </mxCell>
        <mxCell id="V9tAIfoe7_E-p_flxRr7-0" value="&lt;h2&gt;&lt;font face=&quot;Verdana&quot;&gt;Websitename&lt;/font&gt;&lt;/h2&gt;" style="rounded=0;whiteSpace=wrap;html=1;fillColor=none;align=center;" parent="6c9Q2NEHoMRy_ROicIrK-1" vertex="1">
          <mxGeometry x="50" y="90" width="750" height="70" as="geometry" />
        </mxCell>
      </root>
    </mxGraphModel>
  </diagram>
  <diagram id="VAHl2OZ6XBbvXDWM4scl" name="Question - Choice">
    <mxGraphModel dx="4913" dy="2269" grid="1" gridSize="10" guides="1" tooltips="1" connect="1" arrows="1" fold="1" page="1" pageScale="1" pageWidth="850" pageHeight="1100" math="0" shadow="0">
      <root>
        <mxCell id="0" />
        <mxCell id="1" parent="0" />
        <mxCell id="oJPEqYzEZ2WagGqNJWcs-2" value="" style="rounded=0;whiteSpace=wrap;html=1;" parent="1" vertex="1">
          <mxGeometry x="50" y="10" width="750" height="780" as="geometry" />
        </mxCell>
        <mxCell id="oJPEqYzEZ2WagGqNJWcs-6" value="&lt;h1&gt;&lt;font face=&quot;Verdana&quot;&gt;Question Text&lt;/font&gt;&lt;/h1&gt;" style="text;html=1;strokeColor=none;fillColor=none;align=center;verticalAlign=middle;whiteSpace=wrap;rounded=0;" parent="1" vertex="1">
          <mxGeometry x="320" y="140" width="210" height="100" as="geometry" />
        </mxCell>
        <mxCell id="oJPEqYzEZ2WagGqNJWcs-7" value="&lt;h1&gt;A&lt;/h1&gt;" style="rounded=1;whiteSpace=wrap;html=1;fillColor=none;" parent="1" vertex="1">
          <mxGeometry x="160" y="340" width="120" height="120" as="geometry" />
        </mxCell>
        <mxCell id="oJPEqYzEZ2WagGqNJWcs-8" value="&lt;h1&gt;B&lt;/h1&gt;" style="rounded=1;whiteSpace=wrap;html=1;fillColor=#d5e8d4;strokeColor=#82b366;" parent="1" vertex="1">
          <mxGeometry x="365" y="340" width="120" height="120" as="geometry" />
        </mxCell>
        <mxCell id="oJPEqYzEZ2WagGqNJWcs-9" value="&lt;h1&gt;C&lt;/h1&gt;" style="rounded=1;whiteSpace=wrap;html=1;fillColor=none;" parent="1" vertex="1">
          <mxGeometry x="570" y="340" width="120" height="120" as="geometry" />
        </mxCell>
        <mxCell id="oJPEqYzEZ2WagGqNJWcs-10" value="" style="rounded=1;whiteSpace=wrap;html=1;fillColor=#d5e8d4;strokeColor=#82b366;" parent="1" vertex="1">
          <mxGeometry x="50" y="650" width="750" height="140" as="geometry" />
        </mxCell>
        <mxCell id="oJPEqYzEZ2WagGqNJWcs-11" value="&lt;h1&gt;Correct!&lt;/h1&gt;" style="text;html=1;strokeColor=none;fillColor=none;align=center;verticalAlign=middle;whiteSpace=wrap;rounded=0;" parent="1" vertex="1">
          <mxGeometry x="130" y="678" width="140" height="80" as="geometry" />
        </mxCell>
        <mxCell id="oJPEqYzEZ2WagGqNJWcs-12" value="&lt;h2&gt;Next&lt;/h2&gt;" style="rounded=1;whiteSpace=wrap;html=1;fillColor=none;" parent="1" vertex="1">
          <mxGeometry x="610" y="690" width="120" height="60" as="geometry" />
        </mxCell>
        <mxCell id="oJPEqYzEZ2WagGqNJWcs-13" style="edgeStyle=orthogonalEdgeStyle;rounded=0;orthogonalLoop=1;jettySize=auto;html=1;exitX=0.5;exitY=1;exitDx=0;exitDy=0;" parent="1" source="oJPEqYzEZ2WagGqNJWcs-10" target="oJPEqYzEZ2WagGqNJWcs-10" edge="1">
          <mxGeometry relative="1" as="geometry" />
        </mxCell>
        <mxCell id="3XzML_R0A8AWR947J1Mf-1" value="" style="rounded=0;whiteSpace=wrap;html=1;" parent="1" vertex="1">
          <mxGeometry x="50" y="820" width="750" height="780" as="geometry" />
        </mxCell>
        <mxCell id="3XzML_R0A8AWR947J1Mf-4" value="&lt;h1&gt;&lt;font face=&quot;Verdana&quot;&gt;Question Text&lt;/font&gt;&lt;/h1&gt;" style="text;html=1;strokeColor=none;fillColor=none;align=center;verticalAlign=middle;whiteSpace=wrap;rounded=0;" parent="1" vertex="1">
          <mxGeometry x="320" y="950" width="210" height="100" as="geometry" />
        </mxCell>
        <mxCell id="3XzML_R0A8AWR947J1Mf-5" value="&lt;h1&gt;A&lt;/h1&gt;" style="rounded=1;whiteSpace=wrap;html=1;fillColor=#f8cecc;strokeColor=#b85450;" parent="1" vertex="1">
          <mxGeometry x="160" y="1150" width="120" height="120" as="geometry" />
        </mxCell>
        <mxCell id="3XzML_R0A8AWR947J1Mf-6" value="&lt;h1&gt;B&lt;/h1&gt;" style="rounded=1;whiteSpace=wrap;html=1;fillColor=none;" parent="1" vertex="1">
          <mxGeometry x="365" y="1150" width="120" height="120" as="geometry" />
        </mxCell>
        <mxCell id="3XzML_R0A8AWR947J1Mf-7" value="&lt;h1&gt;C&lt;/h1&gt;" style="rounded=1;whiteSpace=wrap;html=1;fillColor=none;" parent="1" vertex="1">
          <mxGeometry x="570" y="1150" width="120" height="120" as="geometry" />
        </mxCell>
        <mxCell id="3XzML_R0A8AWR947J1Mf-8" value="" style="rounded=1;whiteSpace=wrap;html=1;fillColor=#f8cecc;strokeColor=#b85450;" parent="1" vertex="1">
          <mxGeometry x="50" y="1460" width="750" height="140" as="geometry" />
        </mxCell>
        <mxCell id="3XzML_R0A8AWR947J1Mf-9" value="&lt;h1&gt;Incorrect:&lt;/h1&gt;" style="text;html=1;strokeColor=none;fillColor=none;align=center;verticalAlign=middle;whiteSpace=wrap;rounded=0;" parent="1" vertex="1">
          <mxGeometry x="140" y="1490" width="140" height="80" as="geometry" />
        </mxCell>
        <mxCell id="3XzML_R0A8AWR947J1Mf-10" value="&lt;h2&gt;Next&lt;/h2&gt;" style="rounded=1;whiteSpace=wrap;html=1;" parent="1" vertex="1">
          <mxGeometry x="610" y="1500" width="120" height="60" as="geometry" />
        </mxCell>
        <mxCell id="3XzML_R0A8AWR947J1Mf-11" style="edgeStyle=orthogonalEdgeStyle;rounded=0;orthogonalLoop=1;jettySize=auto;html=1;exitX=0.5;exitY=1;exitDx=0;exitDy=0;" parent="1" source="3XzML_R0A8AWR947J1Mf-8" target="3XzML_R0A8AWR947J1Mf-8" edge="1">
          <mxGeometry relative="1" as="geometry" />
        </mxCell>
        <mxCell id="3XzML_R0A8AWR947J1Mf-12" value="&lt;h1&gt;Correct Solution : B&lt;/h1&gt;" style="text;html=1;strokeColor=none;fillColor=none;align=center;verticalAlign=middle;whiteSpace=wrap;rounded=0;" parent="1" vertex="1">
          <mxGeometry x="290" y="1520" width="240" height="20" as="geometry" />
        </mxCell>
        <mxCell id="ir3LHzJTlFNtz7jJu_aX-1" value="" style="rounded=0;whiteSpace=wrap;html=1;" parent="1" vertex="1">
          <mxGeometry x="-800" y="10" width="750" height="780" as="geometry" />
        </mxCell>
        <mxCell id="ir3LHzJTlFNtz7jJu_aX-2" value="" style="rounded=1;whiteSpace=wrap;html=1;fillColor=#d5e8d4;strokeColor=#82b366;" parent="1" vertex="1">
          <mxGeometry x="-734" y="40" width="155" height="20" as="geometry" />
        </mxCell>
        <mxCell id="ir3LHzJTlFNtz7jJu_aX-3" value="" style="rounded=1;whiteSpace=wrap;html=1;fillColor=none;" parent="1" vertex="1">
          <mxGeometry x="-734" y="40" width="640" height="20" as="geometry" />
        </mxCell>
        <mxCell id="ir3LHzJTlFNtz7jJu_aX-4" value="&lt;h1&gt;&lt;font face=&quot;Verdana&quot;&gt;Question Text&lt;/font&gt;&lt;/h1&gt;" style="text;html=1;strokeColor=none;fillColor=none;align=center;verticalAlign=middle;whiteSpace=wrap;rounded=0;" parent="1" vertex="1">
          <mxGeometry x="-530" y="140" width="210" height="100" as="geometry" />
        </mxCell>
        <mxCell id="ir3LHzJTlFNtz7jJu_aX-5" value="&lt;h1&gt;A&lt;/h1&gt;" style="rounded=1;whiteSpace=wrap;html=1;fillColor=none;" parent="1" vertex="1">
          <mxGeometry x="-690" y="340" width="120" height="120" as="geometry" />
        </mxCell>
        <mxCell id="ir3LHzJTlFNtz7jJu_aX-6" value="&lt;h1&gt;B&lt;/h1&gt;" style="rounded=1;whiteSpace=wrap;html=1;" parent="1" vertex="1">
          <mxGeometry x="-485" y="340" width="120" height="120" as="geometry" />
        </mxCell>
        <mxCell id="ir3LHzJTlFNtz7jJu_aX-7" value="&lt;h1&gt;C&lt;/h1&gt;" style="rounded=1;whiteSpace=wrap;html=1;fillColor=none;" parent="1" vertex="1">
          <mxGeometry x="-280" y="340" width="120" height="120" as="geometry" />
        </mxCell>
        <mxCell id="ir3LHzJTlFNtz7jJu_aX-11" style="edgeStyle=orthogonalEdgeStyle;rounded=0;orthogonalLoop=1;jettySize=auto;html=1;exitX=0.5;exitY=1;exitDx=0;exitDy=0;" parent="1" edge="1">
          <mxGeometry relative="1" as="geometry">
            <mxPoint x="-425" y="790" as="sourcePoint" />
            <mxPoint x="-425" y="790" as="targetPoint" />
          </mxGeometry>
        </mxCell>
        <mxCell id="a2xR0MV3W5oibxhNhywb-3" value="" style="shape=cross;whiteSpace=wrap;html=1;rotation=45;fillColor=#000000;" parent="1" vertex="1">
          <mxGeometry x="-770.43" y="37.760000000000005" width="25.43" height="24.47" as="geometry" />
        </mxCell>
        <mxCell id="a2xR0MV3W5oibxhNhywb-5" value="" style="rounded=1;whiteSpace=wrap;html=1;fillColor=#d5e8d4;strokeColor=#82b366;" parent="1" vertex="1">
          <mxGeometry x="108.21000000000004" y="42.239999999999995" width="155" height="20" as="geometry" />
        </mxCell>
        <mxCell id="a2xR0MV3W5oibxhNhywb-6" value="" style="rounded=1;whiteSpace=wrap;html=1;fillColor=none;" parent="1" vertex="1">
          <mxGeometry x="108.21000000000004" y="42.239999999999995" width="640" height="20" as="geometry" />
        </mxCell>
        <mxCell id="a2xR0MV3W5oibxhNhywb-7" value="" style="shape=cross;whiteSpace=wrap;html=1;rotation=45;fillColor=#000000;" parent="1" vertex="1">
          <mxGeometry x="71.78000000000009" y="40" width="25.43" height="24.47" as="geometry" />
        </mxCell>
        <mxCell id="a2xR0MV3W5oibxhNhywb-8" value="" style="rounded=1;whiteSpace=wrap;html=1;fillColor=#d5e8d4;strokeColor=#82b366;" parent="1" vertex="1">
          <mxGeometry x="108.22000000000004" y="860.24" width="155" height="20" as="geometry" />
        </mxCell>
        <mxCell id="a2xR0MV3W5oibxhNhywb-9" value="" style="rounded=1;whiteSpace=wrap;html=1;fillColor=none;" parent="1" vertex="1">
          <mxGeometry x="108.22000000000004" y="860.24" width="640" height="20" as="geometry" />
        </mxCell>
        <mxCell id="a2xR0MV3W5oibxhNhywb-10" value="" style="shape=cross;whiteSpace=wrap;html=1;rotation=45;fillColor=#000000;" parent="1" vertex="1">
          <mxGeometry x="71.79000000000009" y="858" width="25.43" height="24.47" as="geometry" />
        </mxCell>
      </root>
    </mxGraphModel>
  </diagram>
  <diagram name="Questions - Enter Text" id="bZXj7Fa2Nuf2x42VC1xv">
    <mxGraphModel dx="1422" dy="794" grid="1" gridSize="10" guides="1" tooltips="1" connect="1" arrows="1" fold="1" page="1" pageScale="1" pageWidth="850" pageHeight="1100" math="0" shadow="0">
      <root>
        <mxCell id="J5IbFxNTPCL-OjqQ8oxv-0" />
        <mxCell id="J5IbFxNTPCL-OjqQ8oxv-1" parent="J5IbFxNTPCL-OjqQ8oxv-0" />
        <mxCell id="J5IbFxNTPCL-OjqQ8oxv-13" value="" style="rounded=0;whiteSpace=wrap;html=1;" parent="J5IbFxNTPCL-OjqQ8oxv-1" vertex="1">
          <mxGeometry x="50" y="50" width="750" height="780" as="geometry" />
        </mxCell>
        <mxCell id="J5IbFxNTPCL-OjqQ8oxv-14" value="" style="rounded=1;whiteSpace=wrap;html=1;fillColor=#d5e8d4;strokeColor=#82b366;" parent="J5IbFxNTPCL-OjqQ8oxv-1" vertex="1">
          <mxGeometry x="128" y="80" width="155" height="20" as="geometry" />
        </mxCell>
        <mxCell id="J5IbFxNTPCL-OjqQ8oxv-15" value="" style="rounded=1;whiteSpace=wrap;html=1;fillColor=none;" parent="J5IbFxNTPCL-OjqQ8oxv-1" vertex="1">
          <mxGeometry x="128" y="80" width="640" height="20" as="geometry" />
        </mxCell>
        <mxCell id="J5IbFxNTPCL-OjqQ8oxv-16" value="&lt;h1&gt;&lt;font face=&quot;Verdana&quot;&gt;Question Text&lt;/font&gt;&lt;/h1&gt;" style="text;html=1;strokeColor=none;fillColor=none;align=center;verticalAlign=middle;whiteSpace=wrap;rounded=0;" parent="J5IbFxNTPCL-OjqQ8oxv-1" vertex="1">
          <mxGeometry x="310" y="140" width="210" height="100" as="geometry" />
        </mxCell>
        <mxCell id="J5IbFxNTPCL-OjqQ8oxv-17" value="&lt;h3&gt;&lt;br&gt;&lt;/h3&gt;" style="rounded=1;whiteSpace=wrap;html=1;fillColor=none;align=left;labelPosition=center;verticalLabelPosition=middle;verticalAlign=top;" parent="J5IbFxNTPCL-OjqQ8oxv-1" vertex="1">
          <mxGeometry x="155" y="270" width="617.5" height="370" as="geometry" />
        </mxCell>
        <mxCell id="J5IbFxNTPCL-OjqQ8oxv-18" value="" style="rounded=1;whiteSpace=wrap;html=1;fillColor=#d5e8d4;strokeColor=#82b366;" parent="J5IbFxNTPCL-OjqQ8oxv-1" vertex="1">
          <mxGeometry x="50" y="690" width="750" height="140" as="geometry" />
        </mxCell>
        <mxCell id="J5IbFxNTPCL-OjqQ8oxv-19" value="&lt;h1&gt;Correct!&lt;/h1&gt;" style="text;html=1;strokeColor=none;fillColor=none;align=center;verticalAlign=middle;whiteSpace=wrap;rounded=0;" parent="J5IbFxNTPCL-OjqQ8oxv-1" vertex="1">
          <mxGeometry x="130" y="720" width="140" height="80" as="geometry" />
        </mxCell>
        <mxCell id="J5IbFxNTPCL-OjqQ8oxv-20" value="&lt;h2&gt;Next&lt;/h2&gt;" style="rounded=1;whiteSpace=wrap;html=1;" parent="J5IbFxNTPCL-OjqQ8oxv-1" vertex="1">
          <mxGeometry x="610" y="730" width="120" height="60" as="geometry" />
        </mxCell>
        <mxCell id="J5IbFxNTPCL-OjqQ8oxv-21" style="edgeStyle=orthogonalEdgeStyle;rounded=0;orthogonalLoop=1;jettySize=auto;html=1;exitX=0.5;exitY=1;exitDx=0;exitDy=0;" parent="J5IbFxNTPCL-OjqQ8oxv-1" source="J5IbFxNTPCL-OjqQ8oxv-18" target="J5IbFxNTPCL-OjqQ8oxv-18" edge="1">
          <mxGeometry relative="1" as="geometry" />
        </mxCell>
        <mxCell id="J5IbFxNTPCL-OjqQ8oxv-22" value="&lt;h3&gt;&lt;font color=&quot;#616161&quot;&gt;Type here...&lt;/font&gt;&lt;/h3&gt;" style="text;html=1;strokeColor=none;fillColor=none;align=center;verticalAlign=middle;whiteSpace=wrap;rounded=0;" parent="J5IbFxNTPCL-OjqQ8oxv-1" vertex="1">
          <mxGeometry x="155" y="298" width="100" height="20" as="geometry" />
        </mxCell>
        <mxCell id="FBreaV3pNR1ySmcfv6u4-1" value="" style="rounded=0;whiteSpace=wrap;html=1;fillColor=#d5e8d4;strokeColor=none;" parent="J5IbFxNTPCL-OjqQ8oxv-1" vertex="1">
          <mxGeometry x="50" y="800" width="750" height="29" as="geometry" />
        </mxCell>
        <mxCell id="FBreaV3pNR1ySmcfv6u4-3" value="" style="rounded=0;whiteSpace=wrap;html=1;" parent="J5IbFxNTPCL-OjqQ8oxv-1" vertex="1">
          <mxGeometry x="50" y="900" width="750" height="780" as="geometry" />
        </mxCell>
        <mxCell id="FBreaV3pNR1ySmcfv6u4-4" value="" style="rounded=1;whiteSpace=wrap;html=1;fillColor=#d5e8d4;strokeColor=#82b366;" parent="J5IbFxNTPCL-OjqQ8oxv-1" vertex="1">
          <mxGeometry x="105" y="930" width="155" height="20" as="geometry" />
        </mxCell>
        <mxCell id="FBreaV3pNR1ySmcfv6u4-5" value="" style="rounded=1;whiteSpace=wrap;html=1;fillColor=none;" parent="J5IbFxNTPCL-OjqQ8oxv-1" vertex="1">
          <mxGeometry x="105" y="930" width="640" height="20" as="geometry" />
        </mxCell>
        <mxCell id="FBreaV3pNR1ySmcfv6u4-6" value="&lt;h1&gt;&lt;font face=&quot;Verdana&quot;&gt;Question Text&lt;/font&gt;&lt;/h1&gt;" style="text;html=1;strokeColor=none;fillColor=none;align=center;verticalAlign=middle;whiteSpace=wrap;rounded=0;" parent="J5IbFxNTPCL-OjqQ8oxv-1" vertex="1">
          <mxGeometry x="310" y="990" width="210" height="100" as="geometry" />
        </mxCell>
        <mxCell id="FBreaV3pNR1ySmcfv6u4-7" value="&lt;h3&gt;&lt;br&gt;&lt;/h3&gt;" style="rounded=1;whiteSpace=wrap;html=1;fillColor=none;align=left;labelPosition=center;verticalLabelPosition=middle;verticalAlign=top;" parent="J5IbFxNTPCL-OjqQ8oxv-1" vertex="1">
          <mxGeometry x="127.5" y="1120" width="617.5" height="370" as="geometry" />
        </mxCell>
        <mxCell id="FBreaV3pNR1ySmcfv6u4-8" value="" style="rounded=1;whiteSpace=wrap;html=1;strokeColor=#d79b00;fillColor=#ffe6cc;" parent="J5IbFxNTPCL-OjqQ8oxv-1" vertex="1">
          <mxGeometry x="50" y="1540" width="750" height="140" as="geometry" />
        </mxCell>
        <mxCell id="FBreaV3pNR1ySmcfv6u4-9" value="&lt;h1&gt;Incorrect&lt;/h1&gt;" style="text;html=1;strokeColor=none;fillColor=none;align=center;verticalAlign=middle;whiteSpace=wrap;rounded=0;" parent="J5IbFxNTPCL-OjqQ8oxv-1" vertex="1">
          <mxGeometry x="130" y="1570" width="140" height="80" as="geometry" />
        </mxCell>
        <mxCell id="FBreaV3pNR1ySmcfv6u4-10" value="&lt;h2&gt;Next&lt;/h2&gt;" style="rounded=1;whiteSpace=wrap;html=1;" parent="J5IbFxNTPCL-OjqQ8oxv-1" vertex="1">
          <mxGeometry x="610" y="1580" width="120" height="60" as="geometry" />
        </mxCell>
        <mxCell id="FBreaV3pNR1ySmcfv6u4-11" style="edgeStyle=orthogonalEdgeStyle;rounded=0;orthogonalLoop=1;jettySize=auto;html=1;exitX=0.5;exitY=1;exitDx=0;exitDy=0;" parent="J5IbFxNTPCL-OjqQ8oxv-1" source="FBreaV3pNR1ySmcfv6u4-8" target="FBreaV3pNR1ySmcfv6u4-8" edge="1">
          <mxGeometry relative="1" as="geometry" />
        </mxCell>
        <mxCell id="FBreaV3pNR1ySmcfv6u4-12" value="&lt;h3&gt;&lt;font color=&quot;#616161&quot;&gt;Type here...&lt;/font&gt;&lt;/h3&gt;" style="text;html=1;strokeColor=none;fillColor=none;align=center;verticalAlign=middle;whiteSpace=wrap;rounded=0;" parent="J5IbFxNTPCL-OjqQ8oxv-1" vertex="1">
          <mxGeometry x="155" y="1148" width="100" height="20" as="geometry" />
        </mxCell>
        <mxCell id="E5b8j7aNIErdu5T07Bii-0" value="" style="shape=cross;whiteSpace=wrap;html=1;rotation=45;fillColor=#000000;" parent="J5IbFxNTPCL-OjqQ8oxv-1" vertex="1">
          <mxGeometry x="90" y="77.77000000000001" width="25.43" height="24.47" as="geometry" />
        </mxCell>
        <mxCell id="XaTOI-3fvFIQag8GjW9R-0" value="" style="rounded=0;whiteSpace=wrap;html=1;" parent="J5IbFxNTPCL-OjqQ8oxv-1" vertex="1">
          <mxGeometry x="40" y="1760" width="750" height="780" as="geometry" />
        </mxCell>
        <mxCell id="XaTOI-3fvFIQag8GjW9R-1" value="" style="rounded=1;whiteSpace=wrap;html=1;fillColor=#d5e8d4;strokeColor=#82b366;" parent="J5IbFxNTPCL-OjqQ8oxv-1" vertex="1">
          <mxGeometry x="95" y="1790" width="155" height="20" as="geometry" />
        </mxCell>
        <mxCell id="XaTOI-3fvFIQag8GjW9R-2" value="" style="rounded=1;whiteSpace=wrap;html=1;fillColor=none;" parent="J5IbFxNTPCL-OjqQ8oxv-1" vertex="1">
          <mxGeometry x="95" y="1790" width="640" height="20" as="geometry" />
        </mxCell>
        <mxCell id="XaTOI-3fvFIQag8GjW9R-3" value="&lt;h1&gt;&lt;font face=&quot;Verdana&quot;&gt;Question Text&lt;/font&gt;&lt;/h1&gt;" style="text;html=1;strokeColor=none;fillColor=none;align=center;verticalAlign=middle;whiteSpace=wrap;rounded=0;" parent="J5IbFxNTPCL-OjqQ8oxv-1" vertex="1">
          <mxGeometry x="300" y="1850" width="210" height="100" as="geometry" />
        </mxCell>
        <mxCell id="XaTOI-3fvFIQag8GjW9R-4" value="&lt;h3&gt;&lt;br&gt;&lt;/h3&gt;" style="rounded=1;whiteSpace=wrap;html=1;fillColor=none;align=left;labelPosition=center;verticalLabelPosition=middle;verticalAlign=top;" parent="J5IbFxNTPCL-OjqQ8oxv-1" vertex="1">
          <mxGeometry x="117.5" y="1980" width="617.5" height="370" as="geometry" />
        </mxCell>
        <mxCell id="XaTOI-3fvFIQag8GjW9R-7" value="&lt;h2&gt;Check&lt;/h2&gt;" style="rounded=1;whiteSpace=wrap;html=1;" parent="J5IbFxNTPCL-OjqQ8oxv-1" vertex="1">
          <mxGeometry x="600" y="2440" width="120" height="60" as="geometry" />
        </mxCell>
        <mxCell id="XaTOI-3fvFIQag8GjW9R-8" style="edgeStyle=orthogonalEdgeStyle;rounded=0;orthogonalLoop=1;jettySize=auto;html=1;exitX=0.5;exitY=1;exitDx=0;exitDy=0;" parent="J5IbFxNTPCL-OjqQ8oxv-1" edge="1">
          <mxGeometry relative="1" as="geometry">
            <mxPoint x="415" y="2540" as="sourcePoint" />
            <mxPoint x="415" y="2540" as="targetPoint" />
          </mxGeometry>
        </mxCell>
        <mxCell id="XaTOI-3fvFIQag8GjW9R-9" value="&lt;h3&gt;&lt;font color=&quot;#616161&quot;&gt;Type here...&lt;/font&gt;&lt;/h3&gt;" style="text;html=1;strokeColor=none;fillColor=none;align=center;verticalAlign=middle;whiteSpace=wrap;rounded=0;" parent="J5IbFxNTPCL-OjqQ8oxv-1" vertex="1">
          <mxGeometry x="145" y="2008" width="100" height="20" as="geometry" />
        </mxCell>
      </root>
    </mxGraphModel>
  </diagram>
  <diagram id="n7-00UBs9CGzHFa_ccTp" name="Quiz Result">
    <mxGraphModel dx="1673" dy="934" grid="1" gridSize="10" guides="1" tooltips="1" connect="1" arrows="1" fold="1" page="1" pageScale="1" pageWidth="850" pageHeight="1100" math="0" shadow="0">
      <root>
        <mxCell id="3PPmoUIdDRsuL2l0f1-0-0" />
        <mxCell id="3PPmoUIdDRsuL2l0f1-0-1" parent="3PPmoUIdDRsuL2l0f1-0-0" />
        <mxCell id="1C_EmLj4qqUUkNJD7gjC-0" value="" style="rounded=0;whiteSpace=wrap;html=1;" parent="3PPmoUIdDRsuL2l0f1-0-1" vertex="1">
          <mxGeometry x="50" y="50" width="750" height="780" as="geometry" />
        </mxCell>
        <mxCell id="2Iby35-kUrpyBNT3OVyT-0" value="&lt;h2&gt;&lt;font face=&quot;Verdana&quot;&gt;Websitename&lt;/font&gt;&lt;/h2&gt;" style="rounded=0;whiteSpace=wrap;html=1;fillColor=none;align=center;" parent="3PPmoUIdDRsuL2l0f1-0-1" vertex="1">
          <mxGeometry x="50" y="50" width="750" height="70" as="geometry" />
        </mxCell>
        <mxCell id="2Iby35-kUrpyBNT3OVyT-1" value="&lt;h1&gt;&lt;font face=&quot;Verdana&quot;&gt;Results&lt;/font&gt;&lt;/h1&gt;" style="text;html=1;strokeColor=none;fillColor=none;align=center;verticalAlign=middle;whiteSpace=wrap;rounded=0;" parent="3PPmoUIdDRsuL2l0f1-0-1" vertex="1">
          <mxGeometry x="370" y="154" width="110" height="40" as="geometry" />
        </mxCell>
        <mxCell id="2Iby35-kUrpyBNT3OVyT-2" value="&lt;h1&gt;&lt;font face=&quot;Verdana&quot;&gt;Congrats you got {}%&lt;/font&gt;&lt;/h1&gt;" style="text;html=1;strokeColor=none;fillColor=none;align=center;verticalAlign=middle;whiteSpace=wrap;rounded=0;" parent="3PPmoUIdDRsuL2l0f1-0-1" vertex="1">
          <mxGeometry x="250" y="230" width="350" height="40" as="geometry" />
        </mxCell>
        <mxCell id="2Iby35-kUrpyBNT3OVyT-3" value="" style="rounded=1;whiteSpace=wrap;html=1;strokeColor=#FFFFFF;" parent="3PPmoUIdDRsuL2l0f1-0-1" vertex="1">
          <mxGeometry x="150" y="347" width="120" height="60" as="geometry" />
        </mxCell>
        <mxCell id="2Iby35-kUrpyBNT3OVyT-5" value="" style="rounded=1;whiteSpace=wrap;html=1;arcSize=4;" parent="3PPmoUIdDRsuL2l0f1-0-1" vertex="1">
          <mxGeometry x="120" y="307" width="240" height="420" as="geometry" />
        </mxCell>
        <mxCell id="2Iby35-kUrpyBNT3OVyT-6" value="&lt;h1&gt;&lt;font face=&quot;Verdana&quot;&gt;Correct {}:&lt;/font&gt;&lt;/h1&gt;" style="text;html=1;strokeColor=none;fillColor=none;align=center;verticalAlign=middle;whiteSpace=wrap;rounded=0;" parent="3PPmoUIdDRsuL2l0f1-0-1" vertex="1">
          <mxGeometry x="120" y="327" width="240" height="20" as="geometry" />
        </mxCell>
        <mxCell id="2Iby35-kUrpyBNT3OVyT-7" value="" style="rounded=1;whiteSpace=wrap;html=1;" parent="3PPmoUIdDRsuL2l0f1-0-1" vertex="1">
          <mxGeometry x="160" y="377" width="180" height="60" as="geometry" />
        </mxCell>
        <mxCell id="2Iby35-kUrpyBNT3OVyT-8" value="" style="rounded=1;whiteSpace=wrap;html=1;" parent="3PPmoUIdDRsuL2l0f1-0-1" vertex="1">
          <mxGeometry x="160" y="457" width="180" height="60" as="geometry" />
        </mxCell>
        <mxCell id="2Iby35-kUrpyBNT3OVyT-9" value="" style="rounded=1;whiteSpace=wrap;html=1;" parent="3PPmoUIdDRsuL2l0f1-0-1" vertex="1">
          <mxGeometry x="160" y="537" width="180" height="60" as="geometry" />
        </mxCell>
        <mxCell id="2Iby35-kUrpyBNT3OVyT-10" value="" style="rounded=1;whiteSpace=wrap;html=1;" parent="3PPmoUIdDRsuL2l0f1-0-1" vertex="1">
          <mxGeometry x="160" y="617" width="180" height="60" as="geometry" />
        </mxCell>
        <mxCell id="2Iby35-kUrpyBNT3OVyT-12" value="&lt;h1&gt;&lt;font face=&quot;Verdana&quot;&gt;1.&lt;/font&gt;&lt;/h1&gt;" style="text;html=1;strokeColor=none;fillColor=none;align=center;verticalAlign=middle;whiteSpace=wrap;rounded=0;" parent="3PPmoUIdDRsuL2l0f1-0-1" vertex="1">
          <mxGeometry x="120" y="397" width="40" height="20" as="geometry" />
        </mxCell>
        <mxCell id="2Iby35-kUrpyBNT3OVyT-14" value="&lt;h1&gt;&lt;font face=&quot;Verdana&quot;&gt;2.&lt;/font&gt;&lt;/h1&gt;" style="text;html=1;strokeColor=none;fillColor=none;align=center;verticalAlign=middle;whiteSpace=wrap;rounded=0;" parent="3PPmoUIdDRsuL2l0f1-0-1" vertex="1">
          <mxGeometry x="120" y="477" width="40" height="20" as="geometry" />
        </mxCell>
        <mxCell id="2Iby35-kUrpyBNT3OVyT-15" value="&lt;h1&gt;&lt;font face=&quot;Verdana&quot;&gt;3.&lt;/font&gt;&lt;/h1&gt;" style="text;html=1;strokeColor=none;fillColor=none;align=center;verticalAlign=middle;whiteSpace=wrap;rounded=0;" parent="3PPmoUIdDRsuL2l0f1-0-1" vertex="1">
          <mxGeometry x="120" y="557" width="40" height="20" as="geometry" />
        </mxCell>
        <mxCell id="2Iby35-kUrpyBNT3OVyT-16" value="&lt;h1&gt;&lt;font face=&quot;Verdana&quot;&gt;4.&lt;/font&gt;&lt;/h1&gt;" style="text;html=1;strokeColor=none;fillColor=none;align=center;verticalAlign=middle;whiteSpace=wrap;rounded=0;" parent="3PPmoUIdDRsuL2l0f1-0-1" vertex="1">
          <mxGeometry x="120" y="637" width="40" height="20" as="geometry" />
        </mxCell>
        <mxCell id="2Iby35-kUrpyBNT3OVyT-18" value="" style="rounded=1;whiteSpace=wrap;html=1;strokeColor=#FFFFFF;" parent="3PPmoUIdDRsuL2l0f1-0-1" vertex="1">
          <mxGeometry x="540" y="357" width="120" height="60" as="geometry" />
        </mxCell>
        <mxCell id="2Iby35-kUrpyBNT3OVyT-19" value="" style="rounded=1;whiteSpace=wrap;html=1;arcSize=4;" parent="3PPmoUIdDRsuL2l0f1-0-1" vertex="1">
          <mxGeometry x="510" y="307" width="240" height="420" as="geometry" />
        </mxCell>
        <mxCell id="2Iby35-kUrpyBNT3OVyT-20" value="&lt;h1&gt;&lt;font face=&quot;Verdana&quot;&gt;Incorrect {}:&lt;/font&gt;&lt;/h1&gt;" style="text;html=1;strokeColor=none;fillColor=none;align=center;verticalAlign=middle;whiteSpace=wrap;rounded=0;" parent="3PPmoUIdDRsuL2l0f1-0-1" vertex="1">
          <mxGeometry x="510" y="327" width="240" height="20" as="geometry" />
        </mxCell>
        <mxCell id="2Iby35-kUrpyBNT3OVyT-21" value="" style="rounded=1;whiteSpace=wrap;html=1;" parent="3PPmoUIdDRsuL2l0f1-0-1" vertex="1">
          <mxGeometry x="550" y="387" width="180" height="60" as="geometry" />
        </mxCell>
        <mxCell id="2Iby35-kUrpyBNT3OVyT-22" value="" style="rounded=1;whiteSpace=wrap;html=1;" parent="3PPmoUIdDRsuL2l0f1-0-1" vertex="1">
          <mxGeometry x="550" y="467" width="180" height="60" as="geometry" />
        </mxCell>
        <mxCell id="2Iby35-kUrpyBNT3OVyT-23" value="" style="rounded=1;whiteSpace=wrap;html=1;" parent="3PPmoUIdDRsuL2l0f1-0-1" vertex="1">
          <mxGeometry x="550" y="547" width="180" height="60" as="geometry" />
        </mxCell>
        <mxCell id="2Iby35-kUrpyBNT3OVyT-24" value="" style="rounded=1;whiteSpace=wrap;html=1;" parent="3PPmoUIdDRsuL2l0f1-0-1" vertex="1">
          <mxGeometry x="550" y="627" width="180" height="60" as="geometry" />
        </mxCell>
        <mxCell id="2Iby35-kUrpyBNT3OVyT-25" value="&lt;h1&gt;&lt;font face=&quot;Verdana&quot;&gt;1.&lt;/font&gt;&lt;/h1&gt;" style="text;html=1;strokeColor=none;fillColor=none;align=center;verticalAlign=middle;whiteSpace=wrap;rounded=0;" parent="3PPmoUIdDRsuL2l0f1-0-1" vertex="1">
          <mxGeometry x="510" y="407" width="40" height="20" as="geometry" />
        </mxCell>
        <mxCell id="2Iby35-kUrpyBNT3OVyT-26" value="&lt;h1&gt;&lt;font face=&quot;Verdana&quot;&gt;2.&lt;/font&gt;&lt;/h1&gt;" style="text;html=1;strokeColor=none;fillColor=none;align=center;verticalAlign=middle;whiteSpace=wrap;rounded=0;" parent="3PPmoUIdDRsuL2l0f1-0-1" vertex="1">
          <mxGeometry x="510" y="487" width="40" height="20" as="geometry" />
        </mxCell>
        <mxCell id="2Iby35-kUrpyBNT3OVyT-27" value="&lt;h1&gt;&lt;font face=&quot;Verdana&quot;&gt;3.&lt;/font&gt;&lt;/h1&gt;" style="text;html=1;strokeColor=none;fillColor=none;align=center;verticalAlign=middle;whiteSpace=wrap;rounded=0;" parent="3PPmoUIdDRsuL2l0f1-0-1" vertex="1">
          <mxGeometry x="510" y="567" width="40" height="20" as="geometry" />
        </mxCell>
        <mxCell id="2Iby35-kUrpyBNT3OVyT-28" value="&lt;h1&gt;&lt;font face=&quot;Verdana&quot;&gt;4.&lt;/font&gt;&lt;/h1&gt;" style="text;html=1;strokeColor=none;fillColor=none;align=center;verticalAlign=middle;whiteSpace=wrap;rounded=0;" parent="3PPmoUIdDRsuL2l0f1-0-1" vertex="1">
          <mxGeometry x="510" y="647" width="40" height="20" as="geometry" />
        </mxCell>
        <mxCell id="Wdkk0YbkJdLnp9bfHvqb-0" value="&lt;h2&gt;&lt;font face=&quot;Verdana&quot;&gt;Footer&lt;/font&gt;&lt;/h2&gt;" style="rounded=0;whiteSpace=wrap;html=1;fillColor=none;align=center;" parent="3PPmoUIdDRsuL2l0f1-0-1" vertex="1">
          <mxGeometry x="50" y="760" width="750" height="70" as="geometry" />
        </mxCell>
      </root>
    </mxGraphModel>
  </diagram>
</mxfile>
